<svg width="38" height="38" fill="none" xmlns="http://www.w3.org/2000/svg"><path fill-rule="evenodd" clip-rule="evenodd" d="M0 18.75C0 8.395 8.395 0 18.75 0S37.5 8.395 37.5 18.75 29.105 37.5 18.75 37.5 0 29.105 0 18.75Zm16.01 0a2.74 2.74 0 1 1 5.48 0 2.74 2.74 0 0 1-5.48 0Zm2.74-5.763a5.763 5.763 0 1 0 0 11.526 5.763 5.763 0 0 0 0-11.526Zm-5.669-4.063a4.157 4.157 0 0 0-4.157 4.157V24.42a4.157 4.157 0 0 0 4.157 4.157H24.42a4.157 4.157 0 0 0 4.157-4.157V13.08a4.157 4.157 0 0 0-4.157-4.157H13.08Zm-7.18 4.157a7.18 7.18 0 0 1 7.18-7.18H24.42a7.18 7.18 0 0 1 7.18 7.18V24.42a7.18 7.18 0 0 1-7.18 7.18H13.08a7.18 7.18 0 0 1-7.18-7.18V13.08Zm20.88-.472a1.89 1.89 0 1 1-3.78 0 1.89 1.89 0 0 1 3.78 0Z" fill="#fff"/></svg>